<svg id="Layer_1" data-name="Layer 1" xmlns="http://www.w3.org/2000/svg" viewBox="0 0 187.61 49"><defs><style>.cls-1{fill:#00c4cc;}.cls-2{fill:#e43397;}</style></defs><path class="cls-1" d="M79.35.85a2.46,2.46,0,0,1,.3.86,9.64,9.64,0,0,1,0,1.1V20.34c0,1.46-.4,2.31-1.19,2.56a5.15,5.15,0,0,1-1.53.19,5.74,5.74,0,0,1-1.46-.15,2.27,2.27,0,0,1-.81-.38,1.3,1.3,0,0,1-.43-.64,5.56,5.56,0,0,1-.17-1.63V9.7c-.53.65-1.29,1.69-2.3,3.12s-1.66,2.3-1.93,2.65l-.58.75a3,3,0,0,1-.77.58,2.66,2.66,0,0,1-1.32.35,2.69,2.69,0,0,1-1.3-.32,3.23,3.23,0,0,1-.83-.66l-.25-.34c-.43-.53-1.26-1.66-2.51-3.37s-1.91-2.63-2-2.76V20.34a10,10,0,0,1,0,1.1,2.11,2.11,0,0,1-.3.79c-.32.58-1.14.86-2.47.86s-2.09-.28-2.4-.86a2.09,2.09,0,0,1-.3-.8,11,11,0,0,1,0-1.14V2.75a9.84,9.84,0,0,1,0-1.09,2.52,2.52,0,0,1,.3-.84C55.4.27,56.23,0,57.55,0A4.48,4.48,0,0,1,59,.21a1.94,1.94,0,0,1,.82.43L60,.82l7.17,9.41c3.58-4.73,6-7.86,7.17-9.38C74.72.28,75.57,0,76.9,0S79.06.28,79.35.85Z"/><path class="cls-1" d="M89.62,23.06a6.7,6.7,0,0,1-5.3-2.42,8.67,8.67,0,0,1-2.09-5.89V9.22a9.82,9.82,0,0,1,0-1.1,2.93,2.93,0,0,1,.27-.83c.29-.56,1.12-.85,2.46-.85s2.34.41,2.6,1.21a5.18,5.18,0,0,1,.18,1.6v5.53a2.82,2.82,0,0,0,4.75,2,2.65,2.65,0,0,0,.79-2V9.19a9.75,9.75,0,0,1,0-1.08,2.49,2.49,0,0,1,.3-.85c.28-.54,1.09-.82,2.44-.82s2.13.29,2.43.85a2.84,2.84,0,0,1,.27.85,9.75,9.75,0,0,1,0,1.08V20.4a9.66,9.66,0,0,1,0,1.07,2.12,2.12,0,0,1-.31.81c-.31.54-1.12.81-2.42.81s-2.08-.25-2.38-.76A2.47,2.47,0,0,1,93.38,21a3.2,3.2,0,0,1-.58.64,6.17,6.17,0,0,1-.85.68A4.14,4.14,0,0,1,89.62,23.06Z"/><path class="cls-1" d="M101.5,21.64a1.29,1.29,0,0,1-.61-1.19,5.23,5.23,0,0,1,1.2-2.51,1.23,1.23,0,0,1,1.12-.54,4.62,4.62,0,0,1,2.11.78,4.89,4.89,0,0,0,2.4.77c1.28,0,1.92-.25,1.92-.76s-.71-.69-2.11-.87a10.72,10.72,0,0,1-4-1.49,4.3,4.3,0,0,1-1.53-1.78,6.5,6.5,0,0,1-.59-2.9c0-3.32,2.28-5,6.86-5a11.23,11.23,0,0,1,4.61,1.07c.74.34,1.1.76,1.1,1.26a3.82,3.82,0,0,1-.69,1.88c-.47.73-1,1.09-1.43,1.09a4.18,4.18,0,0,1-1.4-.47,5.15,5.15,0,0,0-2.22-.48c-1.25,0-1.87.24-1.87.7,0,.64.71,1,2.15,1.23a11.75,11.75,0,0,1,4,1.21,3.58,3.58,0,0,1,1.53,1.53,5.46,5.46,0,0,1,.62,2.73,6,6,0,0,1-.62,2.81,4,4,0,0,1-1.71,1.7,11.59,11.59,0,0,1-5.08,1A10.79,10.79,0,0,1,101.5,21.64Z"/><path class="cls-1" d="M132.86,12.82a3.83,3.83,0,0,1-1,2.86,3,3,0,0,1-2.14.94h-7.48a1.72,1.72,0,0,0,1,1.48,4.11,4.11,0,0,0,2.09.6,8.76,8.76,0,0,0,2.87-.38l.35-.13a3.22,3.22,0,0,1,1.26-.34c.68,0,1.26.47,1.74,1.43a3.42,3.42,0,0,1,.4,1.44q0,2.82-6.72,2.82a10.32,10.32,0,0,1-4.16-.8,7.18,7.18,0,0,1-2.82-2.14,9.05,9.05,0,0,1-2-5.72,8.24,8.24,0,0,1,2.57-6.36,9.11,9.11,0,0,1,6.43-2.39c2.92,0,5.07,1,6.44,3.09A6.44,6.44,0,0,1,132.86,12.82Zm-6.66.92c.8,0,1.2-.34,1.2-1a1.38,1.38,0,0,0-.57-1.16,2.41,2.41,0,0,0-1.57-.45,3.21,3.21,0,0,0-2,.83,2.34,2.34,0,0,0-1,1.79Z"/><path class="cls-2" d="M6.53,45.41v.87H0V36.7H6.32v.86H1V41H5.73v.87H1v3.57Z"/><path class="cls-2" d="M17.24,39a2.66,2.66,0,0,1,2,.78A3.22,3.22,0,0,1,20,42.1v4.18h-1V42.2a2.48,2.48,0,0,0-.53-1.71,1.82,1.82,0,0,0-1.45-.59,2.18,2.18,0,0,0-1.7.69,2.74,2.74,0,0,0-.62,1.92v3.77h-.93V42.2a2.48,2.48,0,0,0-.53-1.71,1.85,1.85,0,0,0-1.47-.59,2.23,2.23,0,0,0-1.7.69,2.74,2.74,0,0,0-.62,1.92v3.77H8.6v-7.2h.89v1.31a2.37,2.37,0,0,1,1-1A3.09,3.09,0,0,1,12,39a3,3,0,0,1,1.52.38,2.36,2.36,0,0,1,1,1.13,2.73,2.73,0,0,1,1.1-1.11A3.28,3.28,0,0,1,17.24,39Z"/><path class="cls-2" d="M25.36,46.34a3.48,3.48,0,0,1-1.8-.47,3.26,3.26,0,0,1-1.26-1.29,3.88,3.88,0,0,1-.46-1.91,3.79,3.79,0,0,1,.46-1.88,3.38,3.38,0,0,1,1.26-1.31,3.77,3.77,0,0,1,3.61,0,3.22,3.22,0,0,1,1.25,1.31,3.9,3.9,0,0,1,.45,1.88,4,4,0,0,1-.45,1.91,3.11,3.11,0,0,1-1.25,1.29A3.47,3.47,0,0,1,25.36,46.34Zm0-.85a2.55,2.55,0,0,0,1.32-.34,2.46,2.46,0,0,0,.93-1,3.42,3.42,0,0,0,0-2.93,2.56,2.56,0,0,0-2.25-1.35,2.33,2.33,0,0,0-1.31.37,2.51,2.51,0,0,0-.93,1,3.42,3.42,0,0,0,0,2.93,2.6,2.6,0,0,0,.93,1A2.48,2.48,0,0,0,25.36,45.49Z"/><path class="cls-2" d="M34.42,45.83a1.86,1.86,0,0,1-.64.39,2.86,2.86,0,0,1-.82.12,2,2,0,0,1-1.51-.55,2.1,2.1,0,0,1-.52-1.53V39.9H29.71v-.82h1.22V37.5h.95v1.58H34v.82H31.88v4.3a1.46,1.46,0,0,0,.29,1,1.18,1.18,0,0,0,.89.32,1.54,1.54,0,0,0,.56-.1,1.63,1.63,0,0,0,.47-.26Z"/><path class="cls-2" d="M36.11,39.08H37v7.2h-.93Zm.46-1.58a.61.61,0,0,1-.48-.2.72.72,0,0,1-.2-.5.69.69,0,0,1,.2-.47.62.62,0,0,1,.48-.22.66.66,0,0,1,.49.2.66.66,0,0,1,.21.47.72.72,0,0,1-.21.52A.63.63,0,0,1,36.57,37.5Z"/><path class="cls-2" d="M42.47,46.34a3.46,3.46,0,0,1-1.8-.47,3.26,3.26,0,0,1-1.26-1.29,3.89,3.89,0,0,1-.47-1.91,3.8,3.8,0,0,1,.47-1.88,3.38,3.38,0,0,1,1.26-1.31,3.55,3.55,0,0,1,1.8-.46,3.5,3.5,0,0,1,1.8.46,3.25,3.25,0,0,1,1.26,1.31A3.9,3.9,0,0,1,46,42.67a4,4,0,0,1-.45,1.91,3.13,3.13,0,0,1-1.26,1.29A3.41,3.41,0,0,1,42.47,46.34Zm0-.85a2.55,2.55,0,0,0,1.32-.34,2.6,2.6,0,0,0,.93-1,3.42,3.42,0,0,0,0-2.93,2.51,2.51,0,0,0-.93-1,2.54,2.54,0,0,0-2.64,0,2.66,2.66,0,0,0-.93,1,3.42,3.42,0,0,0,0,2.93,2.75,2.75,0,0,0,.93,1A2.55,2.55,0,0,0,42.47,45.49Z"/><path class="cls-2" d="M51.41,39a2.8,2.8,0,0,1,2.07.78,3.18,3.18,0,0,1,.77,2.3v4.18h-.93V42.2a2.44,2.44,0,0,0-.54-1.71,2,2,0,0,0-1.55-.59,2.33,2.33,0,0,0-1.76.69,2.66,2.66,0,0,0-.66,1.92v3.77h-.93v-7.2h.89v1.33a2.59,2.59,0,0,1,1.07-1A3.28,3.28,0,0,1,51.41,39Z"/><path class="cls-2" d="M56.27,42.14h3.45V43H56.27Z"/><path class="cls-2" d="M67.8,41.34a2.27,2.27,0,0,1,1.9,2.38,2.22,2.22,0,0,1-.89,1.89,4.27,4.27,0,0,1-2.58.67H62V36.7h4a3.83,3.83,0,0,1,2.38.64,2.16,2.16,0,0,1,.85,1.82,2.45,2.45,0,0,1-.36,1.35A2.42,2.42,0,0,1,67.8,41.34ZM63,37.52V41H65.9a2.82,2.82,0,0,0,1.72-.44,1.57,1.57,0,0,0,.6-1.31,1.5,1.5,0,0,0-.6-1.29,2.89,2.89,0,0,0-1.72-.45Zm3.24,7.93A3.27,3.27,0,0,0,68.07,45a1.56,1.56,0,0,0,.64-1.38c0-1.19-.83-1.79-2.5-1.79H63v3.61Z"/><path class="cls-2" d="M74.12,39a2.84,2.84,0,0,1,2.07.7,2.8,2.8,0,0,1,.74,2.1v4.46H76V45.15a2.25,2.25,0,0,1-1,.88,3,3,0,0,1-1.43.31,2.83,2.83,0,0,1-1.86-.57,2,2,0,0,1,0-3,3,3,0,0,1,2-.57H76v-.42a1.91,1.91,0,0,0-.5-1.43A2,2,0,0,0,74,39.86a3.69,3.69,0,0,0-2.28.85L71.31,40a3.67,3.67,0,0,1,1.26-.7A4.71,4.71,0,0,1,74.12,39Zm-.33,6.55a2.49,2.49,0,0,0,1.36-.36A2.35,2.35,0,0,0,76,44.12V42.93H73.83c-1.19,0-1.78.43-1.78,1.29a1.19,1.19,0,0,0,.44,1A2.07,2.07,0,0,0,73.79,45.57Z"/><path class="cls-2" d="M81.31,46.34a5.41,5.41,0,0,1-1.61-.24,3.37,3.37,0,0,1-1.2-.65l.41-.77a3.29,3.29,0,0,0,1.1.59,4.17,4.17,0,0,0,1.36.22,2.54,2.54,0,0,0,1.39-.3,1,1,0,0,0,.47-.87A.8.8,0,0,0,83,43.7a1.79,1.79,0,0,0-.64-.35,7.3,7.3,0,0,0-1-.22A13.37,13.37,0,0,1,80,42.81a2,2,0,0,1-.87-.59,1.75,1.75,0,0,1-.35-1.15,1.79,1.79,0,0,1,.72-1.47,3.12,3.12,0,0,1,2-.58,5.19,5.19,0,0,1,1.33.18,3.57,3.57,0,0,1,1.11.48l-.41.79a3.46,3.46,0,0,0-2-.61,2.33,2.33,0,0,0-1.36.33,1,1,0,0,0-.45.86.84.84,0,0,0,.26.65,1.49,1.49,0,0,0,.63.36,9.51,9.51,0,0,0,1.05.24,10.08,10.08,0,0,1,1.34.35,1.87,1.87,0,0,1,.85.56,1.59,1.59,0,0,1,.35,1.09,1.75,1.75,0,0,1-.76,1.49A3.46,3.46,0,0,1,81.31,46.34Z"/><path class="cls-2" d="M91.9,43H86.11a2.6,2.6,0,0,0,2.73,2.52A2.86,2.86,0,0,0,90,45.25a2.57,2.57,0,0,0,.93-.71l.52.63a2.77,2.77,0,0,1-1.14.88,3.76,3.76,0,0,1-1.51.29,3.72,3.72,0,0,1-1.9-.47,3.24,3.24,0,0,1-1.28-1.29,4.22,4.22,0,0,1,0-3.79,3.33,3.33,0,0,1,1.21-1.31A3.28,3.28,0,0,1,88.57,39a3.16,3.16,0,0,1,1.7.46,3.11,3.11,0,0,1,1.2,1.29,4,4,0,0,1,.45,1.9Zm-3.33-3.11a2.34,2.34,0,0,0-1.69.67,2.58,2.58,0,0,0-.77,1.71H91a2.63,2.63,0,0,0-.78-1.71A2.32,2.32,0,0,0,88.57,39.86Z"/><path class="cls-2" d="M100.13,36.11V46.28h-.89V44.84A2.87,2.87,0,0,1,98.11,46a3.05,3.05,0,0,1-1.55.39,3.32,3.32,0,0,1-1.76-.47,3.09,3.09,0,0,1-1.24-1.29,4,4,0,0,1-.45-1.91,4,4,0,0,1,.45-1.9,3.21,3.21,0,0,1,1.24-1.29A3.4,3.4,0,0,1,96.56,39a3.2,3.2,0,0,1,1.53.36,2.91,2.91,0,0,1,1.11,1.07V36.11Zm-3.49,9.38A2.55,2.55,0,0,0,98,45.15a2.63,2.63,0,0,0,.91-1,3.24,3.24,0,0,0,0-2.93,2.54,2.54,0,0,0-.91-1,2.54,2.54,0,0,0-2.64,0,2.51,2.51,0,0,0-.93,1,3.42,3.42,0,0,0,0,2.93,2.6,2.6,0,0,0,.93,1A2.55,2.55,0,0,0,96.64,45.49Z"/><path class="cls-2" d="M115.93,36.7v9.58H115V38.61l-3.63,6.46h-.46l-3.61-6.42v7.63h-.94V36.7h.81l4,7.1,4-7.1Z"/><path class="cls-2" d="M125,39.08v7.2h-.89V45a2.67,2.67,0,0,1-1,1,2.82,2.82,0,0,1-1.45.37,2.88,2.88,0,0,1-2.15-.79,3.12,3.12,0,0,1-.78-2.3V39.08h.93v4.07a2.48,2.48,0,0,0,.54,1.74,2,2,0,0,0,1.53.58,2.22,2.22,0,0,0,1.73-.69,2.77,2.77,0,0,0,.64-1.93V39.08Z"/><path class="cls-2" d="M129.41,46.34a5.41,5.41,0,0,1-1.61-.24,3.37,3.37,0,0,1-1.2-.65l.41-.77a3.29,3.29,0,0,0,1.1.59,4.17,4.17,0,0,0,1.36.22,2.54,2.54,0,0,0,1.39-.3,1,1,0,0,0,.47-.87.8.8,0,0,0-.25-.62,1.79,1.79,0,0,0-.64-.35,7.3,7.3,0,0,0-1-.22,13.37,13.37,0,0,1-1.36-.32,2,2,0,0,1-.87-.59,1.75,1.75,0,0,1-.35-1.15,1.79,1.79,0,0,1,.72-1.47,3.09,3.09,0,0,1,2-.58,5.2,5.2,0,0,1,1.34.18,3.57,3.57,0,0,1,1.11.48l-.41.79a3.47,3.47,0,0,0-2-.61,2.32,2.32,0,0,0-1.35.33,1,1,0,0,0-.45.86.84.84,0,0,0,.26.65,1.49,1.49,0,0,0,.63.36,9.51,9.51,0,0,0,1.05.24,10.08,10.08,0,0,1,1.34.35,1.87,1.87,0,0,1,.85.56,1.59,1.59,0,0,1,.35,1.09,1.75,1.75,0,0,1-.76,1.49A3.46,3.46,0,0,1,129.41,46.34Z"/><path class="cls-2" d="M134,39.08h.93v7.2H134Zm.46-1.58a.61.61,0,0,1-.48-.2.72.72,0,0,1-.2-.5.69.69,0,0,1,.2-.47.62.62,0,0,1,.48-.22.66.66,0,0,1,.48.2.63.63,0,0,1,.22.47.69.69,0,0,1-.22.52A.62.62,0,0,1,134.44,37.5Z"/><path class="cls-2" d="M140.38,46.34a3.53,3.53,0,0,1-1.84-.47,3.2,3.2,0,0,1-1.26-1.29,3.89,3.89,0,0,1-.47-1.91,3.8,3.8,0,0,1,.47-1.88,3.31,3.31,0,0,1,1.26-1.31,3.62,3.62,0,0,1,1.84-.46,3.45,3.45,0,0,1,1.59.36,2.68,2.68,0,0,1,1.12,1.07l-.7.48a2.16,2.16,0,0,0-.87-.78,2.36,2.36,0,0,0-1.14-.29,2.46,2.46,0,0,0-1.34.37,2.49,2.49,0,0,0-.95,1,3.2,3.2,0,0,0-.33,1.46,3.24,3.24,0,0,0,.33,1.49,2.58,2.58,0,0,0,.95,1,2.62,2.62,0,0,0,1.34.34,2.58,2.58,0,0,0,1.14-.26,2.17,2.17,0,0,0,.87-.81l.7.51A2.74,2.74,0,0,1,142,46,3.33,3.33,0,0,1,140.38,46.34Z"/><path class="cls-2" d="M152,36.7a4,4,0,0,1,2.75.88,3,3,0,0,1,1,2.4,3,3,0,0,1-1,2.4,4,4,0,0,1-2.75.87h-2.46v3h-1V36.7Zm0,5.66a3.07,3.07,0,0,0,2.09-.62,2.19,2.19,0,0,0,.72-1.76,2.26,2.26,0,0,0-.72-1.79,3.12,3.12,0,0,0-2.09-.63h-2.44v4.8Z"/><path class="cls-2" d="M157.78,36.11h.93V46.28h-.93Z"/><path class="cls-2" d="M163.74,39a2.84,2.84,0,0,1,2.07.7,2.8,2.8,0,0,1,.74,2.1v4.46h-.89V45.15a2.31,2.31,0,0,1-.95.88,3.09,3.09,0,0,1-1.44.31,2.87,2.87,0,0,1-1.86-.57,2.06,2.06,0,0,1,0-3,3,3,0,0,1,2-.57h2.21v-.42a1.88,1.88,0,0,0-.51-1.43,2,2,0,0,0-1.47-.49,3.69,3.69,0,0,0-2.28.85l-.43-.73a3.58,3.58,0,0,1,1.26-.7A4.71,4.71,0,0,1,163.74,39Zm-.33,6.55a2.43,2.43,0,0,0,1.35-.36,2.36,2.36,0,0,0,.86-1.09V42.93h-2.17c-1.19,0-1.78.43-1.78,1.29a1.19,1.19,0,0,0,.44,1A2.07,2.07,0,0,0,163.41,45.57Z"/><path class="cls-2" d="M174.88,39.08l-3.45,8.06a3.44,3.44,0,0,1-1,1.44,2.08,2.08,0,0,1-1.31.42,2.91,2.91,0,0,1-.95-.16,2,2,0,0,1-.74-.49l.43-.72a1.74,1.74,0,0,0,1.28.54,1.16,1.16,0,0,0,.79-.28,2.28,2.28,0,0,0,.64-.93l.29-.7-3.08-7.18h1l2.59,6.11L174,39.08Z"/><path class="cls-2" d="M182.21,43h-5.79a2.6,2.6,0,0,0,2.73,2.52,2.86,2.86,0,0,0,1.18-.24,2.57,2.57,0,0,0,.93-.71l.53.63a2.8,2.8,0,0,1-1.15.88,3.73,3.73,0,0,1-1.51.29,3.68,3.68,0,0,1-1.89-.47A3.18,3.18,0,0,1,176,44.58a4.13,4.13,0,0,1,0-3.79,3.24,3.24,0,0,1,1.2-1.31,3.28,3.28,0,0,1,1.74-.46,3.2,3.2,0,0,1,2.91,1.75,4.06,4.06,0,0,1,.44,1.9Zm-3.33-3.11a2.32,2.32,0,0,0-1.68.67,2.54,2.54,0,0,0-.78,1.71h4.92a2.62,2.62,0,0,0-.77-1.71A2.36,2.36,0,0,0,178.88,39.86Z"/><path class="cls-2" d="M185,40.49a2.18,2.18,0,0,1,1-1.09,3.22,3.22,0,0,1,1.61-.38V40l-.21,0a2.2,2.2,0,0,0-1.73.71,2.88,2.88,0,0,0-.62,2v3.67h-.93v-7.2h.9Z"/></svg>