<?xml version="1.0" encoding="utf-8"?>
<!-- Generator: Adobe Illustrator 24.2.3, SVG Export Plug-In . SVG Version: 6.00 Build 0)  -->
<svg version="1.1" id="Layer_1" xmlns="http://www.w3.org/2000/svg" xmlns:xlink="http://www.w3.org/1999/xlink" x="0px" y="0px"
	 viewBox="0 0 192.9 61.3" style="enable-background:new 0 0 192.9 61.3;" xml:space="preserve">
<style type="text/css">
	.st0{fill:#E9A300;}
</style>
<path class="st0" d="M77,16c0.2,0.4,0.3,0.7,0.4,1.1c0,0.5,0.1,1,0.1,1.5v23.5c0,2-0.5,3.1-1.6,3.4c-0.7,0.2-1.4,0.3-2.1,0.3
	s-1.3,0-2-0.2c-0.4-0.1-0.8-0.3-1.1-0.5c-0.3-0.2-0.5-0.5-0.6-0.9c-0.2-0.7-0.2-1.5-0.2-2.2V27.9c-0.7,0.9-1.7,2.3-3.1,4.2
	c-1.4,1.9-2.2,3.1-2.6,3.6l-0.8,1c-0.3,0.3-0.6,0.6-1,0.8c-0.5,0.3-1.1,0.5-1.8,0.5c-0.6,0-1.2-0.1-1.7-0.4
	c-0.4-0.2-0.8-0.5-1.1-0.9l-0.3-0.5c-0.6-0.7-1.7-2.2-3.4-4.5s-2.6-3.5-2.7-3.7v14.3c0,0.5,0,1-0.1,1.5c-0.1,0.4-0.2,0.7-0.4,1.1
	c-0.4,0.8-1.5,1.2-3.3,1.2s-2.8-0.4-3.2-1.2c-0.2-0.3-0.3-0.7-0.4-1.1c0-0.5-0.1-1-0.1-1.5V18.6c0-0.5,0-1,0.1-1.5
	c0.1-0.4,0.2-0.8,0.4-1.1c0.4-0.7,1.5-1.1,3.3-1.1c0.7,0,1.4,0.1,2,0.3c0.4,0.1,0.8,0.3,1.1,0.6L51,16l9.6,12.6
	c4.8-6.3,8-10.5,9.6-12.6c0.4-0.8,1.6-1.1,3.4-1.1S76.6,15.3,77,16z"/>
<path class="st0" d="M90.8,45.8c-2.7,0.1-5.4-1.1-7.1-3.2c-1.9-2.2-2.9-5-2.8-7.9v-7.4c0-0.5,0-1,0.1-1.5c0.1-0.4,0.2-0.8,0.3-1.1
	c0.4-0.8,1.5-1.1,3.3-1.1c2,0,3.1,0.5,3.5,1.6c0.2,0.7,0.3,1.4,0.2,2.1v7.4c-0.1,1,0.3,2,1,2.7c1.5,1.3,3.8,1.3,5.4,0
	c0.7-0.7,1.1-1.7,1.1-2.7v-7.5c0-0.5,0-1,0.1-1.4s0.2-0.8,0.4-1.1c0.4-0.7,1.5-1.1,3.3-1.1s2.9,0.4,3.3,1.1c0.2,0.4,0.3,0.7,0.4,1.1
	c0,0.5,0.1,1,0.1,1.5v15c0,0.5,0,1-0.1,1.4s-0.2,0.8-0.4,1.1c-0.4,0.7-1.5,1.1-3.2,1.1s-2.8-0.3-3.2-1c-0.3-0.5-0.4-1.1-0.4-1.7
	c-0.2,0.3-0.5,0.6-0.8,0.8c-0.4,0.3-0.7,0.6-1.1,0.9C93,45.5,91.9,45.9,90.8,45.8z"/>
<path class="st0" d="M106.7,43.9c-0.6-0.3-0.9-0.9-0.8-1.6c0.2-1.2,0.8-2.4,1.6-3.4c0.3-0.5,0.9-0.8,1.5-0.7c1,0.1,2,0.4,2.8,1
	c1,0.6,2.1,1,3.2,1c1.7,0,2.6-0.3,2.6-1c0-0.5-1-0.9-2.8-1.2c-1.9-0.3-3.7-1-5.3-2c-0.9-0.6-1.6-1.4-2-2.4c-0.6-1.2-0.8-2.5-0.8-3.9
	c0-4.5,3.1-6.7,9.2-6.7c2.1,0,4.3,0.5,6.2,1.4c1,0.5,1.5,1,1.5,1.7c-0.1,0.9-0.4,1.8-0.9,2.5c-0.6,1-1.3,1.5-1.9,1.5
	c-0.7-0.1-1.3-0.3-1.9-0.6c-0.9-0.4-2-0.6-3-0.6c-1.7,0-2.5,0.3-2.5,0.9c0,0.9,1,1.4,2.9,1.6s3.7,0.8,5.4,1.6c0.9,0.5,1.6,1.2,2.1,2
	c0.6,1.1,0.9,2.4,0.8,3.7c0,1.3-0.2,2.6-0.8,3.8c-0.5,1-1.3,1.8-2.3,2.3c-2.1,0.9-4.5,1.4-6.8,1.3C111.8,46.2,109.1,45.4,106.7,43.9
	z"/>
<path class="st0" d="M148.8,32.1c0.1,1.4-0.4,2.8-1.3,3.8c-0.8,0.8-1.8,1.2-2.9,1.2h-10c0,0.9,0.6,1.7,1.4,2
	c0.8,0.5,1.8,0.8,2.8,0.8c1.3,0,2.6-0.1,3.9-0.5l0.5-0.2c0.5-0.3,1.1-0.4,1.7-0.5c0.9,0,1.7,0.6,2.3,1.9c0.3,0.6,0.5,1.3,0.5,1.9
	c0,2.5-3,3.8-9,3.8c-1.9,0-3.8-0.3-5.6-1.1c-1.5-0.6-2.8-1.6-3.8-2.9c-1.8-2.1-2.7-4.8-2.7-7.6c-0.1-3.2,1.1-6.3,3.5-8.5
	c2.3-2.1,5.4-3.3,8.6-3.2c3.9,0,6.8,1.4,8.6,4.1C148.3,28.7,148.8,30.4,148.8,32.1z M139.9,33.3c1.1,0,1.6-0.5,1.6-1.4
	c0-0.6-0.3-1.2-0.8-1.5c-0.6-0.4-1.4-0.6-2.1-0.6c-1,0-2,0.4-2.7,1.1c-0.8,0.5-1.3,1.4-1.4,2.4H139.9z"/>
</svg>
