<svg id="Layer_1" data-name="Layer 1" xmlns="http://www.w3.org/2000/svg" viewBox="0 0 192.86 61.34"><defs><style>.cls-1{fill:#fff;}.cls-2{fill:#00e0f6;}</style></defs><path class="cls-1" d="M80.85,3.14a3.23,3.23,0,0,1,.4,1.15,13.39,13.39,0,0,1,.06,1.47V29.29c0,1.95-.53,3.1-1.59,3.43a7,7,0,0,1-2.06.26,7.83,7.83,0,0,1-2-.2,3.36,3.36,0,0,1-1.09-.52A1.75,1.75,0,0,1,74,31.4a7.88,7.88,0,0,1-.22-2.19V15c-.71.87-1.73,2.27-3.09,4.18s-2.22,3.09-2.59,3.57l-.77,1a3.82,3.82,0,0,1-1,.78,3.46,3.46,0,0,1-1.77.48,3.51,3.51,0,0,1-1.74-.44,4,4,0,0,1-1.11-.88l-.34-.46q-.85-1.07-3.37-4.52c-1.66-2.29-2.56-3.53-2.71-3.7V29.29a13.14,13.14,0,0,1-.06,1.47,2.88,2.88,0,0,1-.39,1.06c-.43.77-1.53,1.16-3.31,1.16s-2.8-.39-3.23-1.16a2.71,2.71,0,0,1-.4-1.08,14.27,14.27,0,0,1-.06-1.53V5.69a12.93,12.93,0,0,1,.06-1.46,3.21,3.21,0,0,1,.4-1.13c.43-.73,1.53-1.1,3.31-1.1a6,6,0,0,1,2,.28,2.7,2.7,0,0,1,1.1.58l.24.24,9.62,12.62q7.2-9.51,9.62-12.58C74.64,2.38,75.77,2,77.56,2S80.45,2.38,80.85,3.14Z" transform="translate(-4 -2)"/><path class="cls-1" d="M94.63,32.94a9,9,0,0,1-7.12-3.25,11.67,11.67,0,0,1-2.8-7.91V14.37a12.54,12.54,0,0,1,.06-1.47,3.81,3.81,0,0,1,.35-1.12c.4-.76,1.5-1.13,3.31-1.13,2,0,3.14.53,3.49,1.61a7,7,0,0,1,.24,2.15v7.41a3.62,3.62,0,0,0,1,2.73,4.12,4.12,0,0,0,5.38,0,3.61,3.61,0,0,0,1.06-2.69V14.33a12.73,12.73,0,0,1,.06-1.45,3.28,3.28,0,0,1,.39-1.14c.37-.73,1.46-1.09,3.27-1.09s2.87.37,3.27,1.13a3.88,3.88,0,0,1,.36,1.14,12.61,12.61,0,0,1,.06,1.45v15a12.57,12.57,0,0,1-.06,1.43,2.85,2.85,0,0,1-.42,1.08c-.42.73-1.5,1.1-3.25,1.1s-2.79-.34-3.19-1a3.38,3.38,0,0,1-.41-1.73,4.67,4.67,0,0,1-.78.85,9.79,9.79,0,0,1-1.14.92A5.55,5.55,0,0,1,94.63,32.94Z" transform="translate(-4 -2)"/><path class="cls-1" d="M110.56,31a1.71,1.71,0,0,1-.82-1.59,7,7,0,0,1,1.62-3.37,1.64,1.64,0,0,1,1.49-.71,6.16,6.16,0,0,1,2.83,1,6.54,6.54,0,0,0,3.23,1c1.71,0,2.57-.34,2.57-1,0-.53-1-.92-2.83-1.17a14.22,14.22,0,0,1-5.3-2,5.68,5.68,0,0,1-2-2.39,8.75,8.75,0,0,1-.8-3.88q0-6.69,9.2-6.69a15,15,0,0,1,6.2,1.43c1,.45,1.47,1,1.47,1.69a5,5,0,0,1-.93,2.51c-.63,1-1.27,1.48-1.92,1.48a5.66,5.66,0,0,1-1.87-.64,7.06,7.06,0,0,0-3-.64c-1.67,0-2.51.32-2.51.94,0,.85,1,1.4,2.89,1.65a15.74,15.74,0,0,1,5.42,1.62,4.76,4.76,0,0,1,2.05,2.05,7.23,7.23,0,0,1,.84,3.66,7.84,7.84,0,0,1-.84,3.77,5.33,5.33,0,0,1-2.29,2.29,15.6,15.6,0,0,1-6.81,1.31A14.45,14.45,0,0,1,110.56,31Z" transform="translate(-4 -2)"/><path class="cls-1" d="M152.63,19.19A5.16,5.16,0,0,1,151.34,23a4.07,4.07,0,0,1-2.87,1.25h-10a2.31,2.31,0,0,0,1.4,2,5.48,5.48,0,0,0,2.8.8,11.88,11.88,0,0,0,3.85-.5l.48-.18a4.39,4.39,0,0,1,1.69-.46c.9,0,1.68.64,2.33,1.92a4.65,4.65,0,0,1,.54,1.93q0,3.78-9,3.78a13.83,13.83,0,0,1-5.57-1.07,9.55,9.55,0,0,1-3.79-2.87A12.16,12.16,0,0,1,130.46,22a11.06,11.06,0,0,1,3.45-8.53,12.23,12.23,0,0,1,8.62-3.2q5.9,0,8.65,4.14A8.58,8.58,0,0,1,152.63,19.19Zm-8.94,1.24c1.08,0,1.61-.45,1.61-1.36a1.86,1.86,0,0,0-.75-1.55,3.3,3.3,0,0,0-2.12-.6A4.25,4.25,0,0,0,139.71,18a3.12,3.12,0,0,0-1.36,2.39Z" transform="translate(-4 -2)"/><path class="cls-2" d="M10.69,59.79v.86H4V51.19h6.49v.87H5v3.37H9.9v.84H5v3.52Z" transform="translate(-4 -2)"/><path class="cls-2" d="M21.7,53.5a2.78,2.78,0,0,1,2.09.78,3,3,0,0,1,.78,2.25v4.12h-1v-4a2.46,2.46,0,0,0-.53-1.7,1.94,1.94,0,0,0-1.5-.57,2.23,2.23,0,0,0-1.73.69,2.62,2.62,0,0,0-.64,1.87v3.73h-1v-4a2.41,2.41,0,0,0-.53-1.7,2,2,0,0,0-1.52-.57,2.3,2.3,0,0,0-1.75.69,2.62,2.62,0,0,0-.64,1.87v3.73h-.95V53.54h.91v1.29a2.55,2.55,0,0,1,1.06-1,3.22,3.22,0,0,1,1.55-.36,3.11,3.11,0,0,1,1.56.38,2.3,2.3,0,0,1,1,1.11A2.93,2.93,0,0,1,20,53.9,3.43,3.43,0,0,1,21.7,53.5Z" transform="translate(-4 -2)"/><path class="cls-2" d="M30.07,60.71a3.65,3.65,0,0,1-1.85-.46A3.35,3.35,0,0,1,26.93,59a3.7,3.7,0,0,1-.48-1.88,3.64,3.64,0,0,1,.48-1.87A3.42,3.42,0,0,1,28.22,54a3.93,3.93,0,0,1,3.69,0,3.35,3.35,0,0,1,1.29,1.27,3.64,3.64,0,0,1,.48,1.87A3.7,3.7,0,0,1,33.2,59a3.28,3.28,0,0,1-1.29,1.27A3.67,3.67,0,0,1,30.07,60.71Zm0-.84a2.67,2.67,0,0,0,1.36-.34,2.43,2.43,0,0,0,.94-1,3.09,3.09,0,0,0,.33-1.44,3.13,3.13,0,0,0-.33-1.45,2.47,2.47,0,0,0-.94-1,2.95,2.95,0,0,0-2.71,0,2.58,2.58,0,0,0-1,1,3,3,0,0,0-.34,1.45,3,3,0,0,0,.34,1.44,2.54,2.54,0,0,0,1,1A2.66,2.66,0,0,0,30.07,59.87Z" transform="translate(-4 -2)"/><path class="cls-2" d="M39.38,60.21a1.62,1.62,0,0,1-.68.38,2.84,2.84,0,0,1-.81.12,2.11,2.11,0,0,1-1.56-.54,2,2,0,0,1-.54-1.51v-4.3H34.54v-.82h1.25V52h1v1.56h2.17v.82H36.75V58.6a1.31,1.31,0,0,0,.32,1,1.2,1.2,0,0,0,.91.32,1.89,1.89,0,0,0,.58-.08,1.27,1.27,0,0,0,.48-.28Z" transform="translate(-4 -2)"/><path class="cls-2" d="M41.12,53.54h1v7.11h-1Zm.5-1.56a.74.74,0,0,1-.52-.19.68.68,0,0,1,0-1,.75.75,0,0,1,.52-.2.68.68,0,0,1,.49.2.65.65,0,0,1,.2.46.69.69,0,0,1-.2.5A.67.67,0,0,1,41.62,52Z" transform="translate(-4 -2)"/><path class="cls-2" d="M47.66,60.71a3.65,3.65,0,0,1-1.85-.46A3.37,3.37,0,0,1,44.51,59,3.7,3.7,0,0,1,44,57.1a3.64,3.64,0,0,1,.48-1.87A3.45,3.45,0,0,1,45.81,54a3.91,3.91,0,0,1,3.68,0,3.31,3.31,0,0,1,1.3,1.27,3.74,3.74,0,0,1,.47,1.87A3.8,3.8,0,0,1,50.79,59a3.24,3.24,0,0,1-1.3,1.27A3.63,3.63,0,0,1,47.66,60.71Zm0-.84A2.66,2.66,0,0,0,49,59.53a2.43,2.43,0,0,0,.94-1,3.09,3.09,0,0,0,.34-1.44A3.13,3.13,0,0,0,50,55.65a2.47,2.47,0,0,0-.94-1,2.95,2.95,0,0,0-2.71,0,2.63,2.63,0,0,0-.95,1A3,3,0,0,0,45,57.1a3,3,0,0,0,.34,1.44,2.59,2.59,0,0,0,.95,1A2.67,2.67,0,0,0,47.66,59.87Z" transform="translate(-4 -2)"/><path class="cls-2" d="M56.84,53.5a2.87,2.87,0,0,1,2.12.78,3,3,0,0,1,.79,2.25v4.12h-1v-4a2.37,2.37,0,0,0-.56-1.7,2.08,2.08,0,0,0-1.58-.57,2.44,2.44,0,0,0-1.83.69,2.59,2.59,0,0,0-.66,1.87v3.73h-1V53.54h.91v1.31a2.78,2.78,0,0,1,1.1-1A3.44,3.44,0,0,1,56.84,53.5Z" transform="translate(-4 -2)"/><path class="cls-2" d="M61.84,56.57h3.53v.83H61.84Z" transform="translate(-4 -2)"/><path class="cls-2" d="M73.68,55.77a2.41,2.41,0,0,1,1.43.82,2.27,2.27,0,0,1,.52,1.53,2.18,2.18,0,0,1-.9,1.87,4.45,4.45,0,0,1-2.65.66H67.72V51.19H71.8a4.06,4.06,0,0,1,2.45.64,2.07,2.07,0,0,1,.88,1.79,2.2,2.2,0,0,1-1.45,2.15Zm-5-3.75v3.43h3A3,3,0,0,0,73.5,55a1.44,1.44,0,0,0,.63-1.27,1.47,1.47,0,0,0-.63-1.28A3.05,3.05,0,0,0,71.74,52Zm3.34,7.81A3.37,3.37,0,0,0,74,59.39,1.51,1.51,0,0,0,74.63,58c0-1.18-.85-1.77-2.57-1.77H68.72v3.56Z" transform="translate(-4 -2)"/><path class="cls-2" d="M80.19,53.5a3,3,0,0,1,2.14.7,2.68,2.68,0,0,1,.73,2v4.4h-.91V59.53a2.22,2.22,0,0,1-1,.88,3.38,3.38,0,0,1-1.49.3,3,3,0,0,1-1.9-.56,1.84,1.84,0,0,1-.69-1.49,1.81,1.81,0,0,1,.65-1.46,3.3,3.3,0,0,1,2.1-.55h2.25v-.44a1.84,1.84,0,0,0-.52-1.4,2.07,2.07,0,0,0-1.49-.47,4,4,0,0,0-1.3.21,3.59,3.59,0,0,0-1.08.62l-.41-.72a3.62,3.62,0,0,1,1.29-.69A5,5,0,0,1,80.19,53.5ZM79.86,60a2.59,2.59,0,0,0,1.39-.36,2.25,2.25,0,0,0,.86-1.07V57.36H79.88c-1.21,0-1.82.42-1.82,1.26a1.15,1.15,0,0,0,.46,1A2.18,2.18,0,0,0,79.86,60Z" transform="translate(-4 -2)"/><path class="cls-2" d="M87.59,60.71a5.78,5.78,0,0,1-1.68-.24,3.35,3.35,0,0,1-1.21-.64l.42-.75a3.42,3.42,0,0,0,1.11.57,4.44,4.44,0,0,0,1.42.22,2.7,2.7,0,0,0,1.43-.3.94.94,0,0,0,.48-.85.78.78,0,0,0-.26-.62,2,2,0,0,0-.66-.34,7.69,7.69,0,0,0-1-.22,11.57,11.57,0,0,1-1.4-.32,2.23,2.23,0,0,1-.9-.57A1.74,1.74,0,0,1,85,55.51a1.71,1.71,0,0,1,.73-1.43,3.25,3.25,0,0,1,2.07-.58,5.3,5.3,0,0,1,1.36.18,3.83,3.83,0,0,1,1.15.48l-.41.77a3.58,3.58,0,0,0-2.1-.61,2.37,2.37,0,0,0-1.39.33,1,1,0,0,0-.46.84.9.9,0,0,0,.26.66,1.6,1.6,0,0,0,.64.36c.26.07.63.14,1.09.22s1,.23,1.36.33a2,2,0,0,1,.88.56,1.52,1.52,0,0,1,.37,1.08,1.74,1.74,0,0,1-.77,1.47A3.74,3.74,0,0,1,87.59,60.71Z" transform="translate(-4 -2)"/><path class="cls-2" d="M98.47,57.4h-6a2.6,2.6,0,0,0,.85,1.8,2.88,2.88,0,0,0,2,.67,2.91,2.91,0,0,0,1.19-.24,2.78,2.78,0,0,0,1-.69l.53.61a2.92,2.92,0,0,1-1.19.88,4.11,4.11,0,0,1-1.55.28,3.92,3.92,0,0,1-1.94-.46A3.4,3.4,0,0,1,92,59a4,4,0,0,1,0-3.75A3.41,3.41,0,0,1,93.25,54,3.45,3.45,0,0,1,95,53.5,3.39,3.39,0,0,1,96.8,54,3.2,3.2,0,0,1,98,55.23a3.94,3.94,0,0,1,.44,1.87ZM95,54.32a2.41,2.41,0,0,0-1.72.65,2.59,2.59,0,0,0-.79,1.72h5a2.65,2.65,0,0,0-.8-1.72A2.37,2.37,0,0,0,95,54.32Z" transform="translate(-4 -2)"/><path class="cls-2" d="M106.93,50.63v10H106V59.24a2.82,2.82,0,0,1-1.13,1.09,3.24,3.24,0,0,1-1.6.38,3.58,3.58,0,0,1-1.81-.46A3.17,3.17,0,0,1,100.18,59a4.05,4.05,0,0,1,0-3.75A3,3,0,0,1,101.45,54a3.58,3.58,0,0,1,1.81-.46,3.38,3.38,0,0,1,1.56.36,2.94,2.94,0,0,1,1.13,1V50.63Zm-3.59,9.24a2.64,2.64,0,0,0,1.34-.34,2.33,2.33,0,0,0,.95-1A3,3,0,0,0,106,57.1a3,3,0,0,0-.34-1.45,2.36,2.36,0,0,0-.95-1,2.91,2.91,0,0,0-2.69,0,2.58,2.58,0,0,0-1,1,3,3,0,0,0-.34,1.45,3,3,0,0,0,.34,1.44,2.54,2.54,0,0,0,1,1A2.66,2.66,0,0,0,103.34,59.87Z" transform="translate(-4 -2)"/><path class="cls-2" d="M123.15,51.19v9.46h-1V53.08l-3.7,6.37H118l-3.72-6.33v7.53h-1V51.19h.84l4.1,7,4.06-7Z" transform="translate(-4 -2)"/><path class="cls-2" d="M132.42,53.54v7.11h-.91v-1.3a2.7,2.7,0,0,1-1,1,3.12,3.12,0,0,1-1.51.36,2.75,2.75,0,0,1-3-3.05V53.54h1v4a2.44,2.44,0,0,0,.53,1.72,2.13,2.13,0,0,0,1.6.57,2.3,2.3,0,0,0,1.75-.67,2.6,2.6,0,0,0,.66-1.9V53.54Z" transform="translate(-4 -2)"/><path class="cls-2" d="M137,60.71a5.71,5.71,0,0,1-1.67-.24,3.4,3.4,0,0,1-1.22-.64l.42-.75a3.47,3.47,0,0,0,1.12.57,4.38,4.38,0,0,0,1.41.22,2.65,2.65,0,0,0,1.43-.3.94.94,0,0,0,.48-.85.78.78,0,0,0-.26-.62,1.9,1.9,0,0,0-.65-.34,7.9,7.9,0,0,0-1-.22,11.34,11.34,0,0,1-1.39-.32,2.23,2.23,0,0,1-.9-.57,1.84,1.84,0,0,1,.38-2.57,3.25,3.25,0,0,1,2.07-.58,5.22,5.22,0,0,1,1.35.18,3.9,3.9,0,0,1,1.16.48l-.42.77a3.55,3.55,0,0,0-2.09-.61,2.35,2.35,0,0,0-1.39.33,1,1,0,0,0-.46.84.86.86,0,0,0,.26.66,1.63,1.63,0,0,0,.63.36c.27.07.63.14,1.1.22s1,.23,1.35.33a2,2,0,0,1,.88.56A1.48,1.48,0,0,1,140,58.7a1.72,1.72,0,0,1-.78,1.47A3.72,3.72,0,0,1,137,60.71Z" transform="translate(-4 -2)"/><path class="cls-2" d="M141.72,53.54h1v7.11h-1Zm.5-1.56a.76.76,0,0,1-.52-.19.68.68,0,0,1,0-1,.77.77,0,0,1,.52-.2.7.7,0,0,1,.5.2.65.65,0,0,1,.2.46.69.69,0,0,1-.2.5A.69.69,0,0,1,142.22,52Z" transform="translate(-4 -2)"/><path class="cls-2" d="M148.3,60.71a3.83,3.83,0,0,1-1.89-.46A3.35,3.35,0,0,1,145.12,59a3.7,3.7,0,0,1-.48-1.88,3.64,3.64,0,0,1,.48-1.87A3.42,3.42,0,0,1,146.41,54a3.83,3.83,0,0,1,1.89-.46,3.63,3.63,0,0,1,1.64.36,2.73,2.73,0,0,1,1.15,1l-.71.5a2.3,2.3,0,0,0-.9-.8,2.71,2.71,0,0,0-1.18-.25,2.91,2.91,0,0,0-1.39.33,2.58,2.58,0,0,0-1,1,3.28,3.28,0,0,0,0,2.91,2.63,2.63,0,0,0,1,1,2.81,2.81,0,0,0,1.39.34,2.58,2.58,0,0,0,1.18-.26,2.19,2.19,0,0,0,.9-.79l.71.5a2.73,2.73,0,0,1-1.15,1A3.72,3.72,0,0,1,148.3,60.71Z" transform="translate(-4 -2)"/><path class="cls-2" d="M160.24,51.19a4.22,4.22,0,0,1,2.83.87,3.23,3.23,0,0,1,0,4.75,4.27,4.27,0,0,1-2.83.85h-2.55v3h-1V51.19Zm0,5.6a3.24,3.24,0,0,0,2.13-.62,2.38,2.38,0,0,0,0-3.49,3.24,3.24,0,0,0-2.13-.62h-2.53v4.73Z" transform="translate(-4 -2)"/><path class="cls-2" d="M166.2,50.63h1v10h-1Z" transform="translate(-4 -2)"/><path class="cls-2" d="M172.32,53.5a3,3,0,0,1,2.13.7,2.65,2.65,0,0,1,.74,2v4.4h-.92V59.53a2.11,2.11,0,0,1-1,.88,3.38,3.38,0,0,1-1.49.3,2.93,2.93,0,0,1-1.89-.56,1.82,1.82,0,0,1-.7-1.49,1.79,1.79,0,0,1,.66-1.46,3.27,3.27,0,0,1,2.09-.55h2.25v-.44a1.8,1.8,0,0,0-.52-1.4,2.07,2.07,0,0,0-1.49-.47,4,4,0,0,0-1.3.21,3.42,3.42,0,0,0-1.07.62l-.42-.72a3.8,3.8,0,0,1,1.29-.69A5,5,0,0,1,172.32,53.5ZM172,60a2.57,2.57,0,0,0,1.39-.36,2.19,2.19,0,0,0,.86-1.07V57.36H172c-1.21,0-1.81.42-1.81,1.26a1.17,1.17,0,0,0,.45,1A2.2,2.2,0,0,0,172,60Z" transform="translate(-4 -2)"/><path class="cls-2" d="M183.77,53.54l-3.56,8a3.32,3.32,0,0,1-1,1.41,2.19,2.19,0,0,1-1.35.42,3.1,3.1,0,0,1-1-.16,2,2,0,0,1-.76-.5l.44-.72a1.81,1.81,0,0,0,1.32.56,1.23,1.23,0,0,0,.81-.28,2.63,2.63,0,0,0,.64-.91l.32-.7-3.17-7.09h1l2.67,6,2.67-6Z" transform="translate(-4 -2)"/><path class="cls-2" d="M191.31,57.4h-5.95a2.56,2.56,0,0,0,.85,1.8,2.87,2.87,0,0,0,1.95.67,2.92,2.92,0,0,0,1.2-.24,2.78,2.78,0,0,0,1-.69l.53.61a3,3,0,0,1-1.19.88,4.13,4.13,0,0,1-1.56.28,3.91,3.91,0,0,1-1.93-.46A3.33,3.33,0,0,1,184.88,59a4,4,0,0,1,0-3.75A3.34,3.34,0,0,1,186.09,54a3.45,3.45,0,0,1,1.78-.46,3.39,3.39,0,0,1,1.77.46,3.2,3.2,0,0,1,1.23,1.27,3.94,3.94,0,0,1,.44,1.87Zm-3.44-3.08a2.41,2.41,0,0,0-1.72.65,2.55,2.55,0,0,0-.79,1.72h5a2.65,2.65,0,0,0-.8-1.72A2.37,2.37,0,0,0,187.87,54.32Z" transform="translate(-4 -2)"/><path class="cls-2" d="M194.19,54.93a2.26,2.26,0,0,1,1-1.07,3.47,3.47,0,0,1,1.67-.36v.91h-.24a2.25,2.25,0,0,0-1.75.7,2.67,2.67,0,0,0-.64,1.91v3.63h-1V53.54h.92Z" transform="translate(-4 -2)"/></svg>